<svg xmlns="http://www.w3.org/2000/svg" xmlns:xlink="http://www.w3.org/1999/xlink" viewBox="0 0 1500 1500" width="1500" height="1500" preserveAspectRatio="xMidYMid meet" style="width: 100%; height: 100%; transform: translate3d(0px, 0px, 0px); content-visibility: visible;"><defs><clipPath id="__lottie_element_26"><rect width="1500" height="1500" x="0" y="0"></rect></clipPath><linearGradient id="__lottie_element_33" spreadMethod="pad" gradientUnits="userSpaceOnUse" x1="0" y1="-352.5" x2="0" y2="352.5"><stop offset="0%" stop-color="rgb(0,0,0)" stop-opacity="0"></stop><stop offset="50%" stop-color="rgb(0,0,0)" stop-opacity="0.5"></stop><stop offset="100%" stop-color="rgb(0,0,0)" stop-opacity="1"></stop></linearGradient><linearGradient id="__lottie_element_37" spreadMethod="pad" gradientUnits="userSpaceOnUse" x1="0" y1="-235" x2="0" y2="235"><stop offset="0%" stop-color="rgb(0,0,0)" stop-opacity="0"></stop><stop offset="50%" stop-color="rgb(0,0,0)" stop-opacity="0.5"></stop><stop offset="100%" stop-color="rgb(0,0,0)" stop-opacity="1"></stop></linearGradient><linearGradient id="__lottie_element_41" spreadMethod="pad" gradientUnits="userSpaceOnUse" x1="-540" y1="0" x2="539.9829711914062" y2="400"><stop offset="0%" stop-color="rgb(240,240,240)"></stop><stop offset="50%" stop-color="rgb(240,240,240)"></stop><stop offset="100%" stop-color="rgb(240,240,240)"></stop></linearGradient><mask id="__lottie_element_43"><path fill="url(#__lottie_element_42)" d=" M540,-540 C540,-540 540,540 540,540 C540,540 -540,540 -540,540 C-540,540 -540,-540 -540,-540 C-540,-540 540,-540 540,-540z"></path></mask><linearGradient id="__lottie_element_42" spreadMethod="pad" gradientUnits="userSpaceOnUse" x1="-540" y1="0" x2="539.9829711914062" y2="400"><stop stop-color="rgb(255,255,255)" offset="0%" stop-opacity="0"></stop><stop stop-color="rgb(255,255,255)" offset="50%" stop-opacity="0.5"></stop><stop stop-color="rgb(255,255,255)" offset="75%" stop-opacity="1"></stop><stop stop-color="rgb(255,255,255)" offset="75%" stop-opacity="0.5"></stop><stop stop-color="rgb(255,255,255)" offset="75%" stop-opacity="0"></stop></linearGradient><g id="__lottie_element_44"><g transform="matrix(1,0,0,1,546.0020141601562,867.1409912109375)" opacity="1" style="display: block;"><g opacity="1" transform="matrix(1,0,0,1,0,0)"><path fill="rgb(255,0,0)" fill-opacity="1" d=" M203.5590057373047,235.08399963378906 C203.5590057373047,235.08399963378906 203.5590057373047,352.5419921875 203.5590057373047,352.5419921875 C203.5590057373047,352.5419921875 -203.5590057373047,117.4280014038086 -203.5590057373047,117.4280014038086 C-203.5590057373047,117.4280014038086 -203.5590057373047,-352.5419921875 -203.5590057373047,-352.5419921875 C-203.5590057373047,-352.5419921875 -101.77899932861328,-293.885986328125 -101.77899932861328,-293.885986328125 C-101.77899932861328,-293.885986328125 -101.77899932861328,58.6879997253418 -101.77899932861328,58.6879997253418 C-101.77899932861328,58.6879997253418 203.5590057373047,235.08399963378906 203.5590057373047,235.08399963378906 M203.56,-117.61 C203.56,-117.61 203.56,-0.16 203.56,-0.16 C203.56,-0.16 50.89,-88.23 50.89,-88.23 C50.89,-88.23 50.89,-29.44 50.89,-29.44 C50.89,-29.44 203.56,58.69 203.56,58.69 C203.56,58.69 203.56,176.19 203.56,176.19 C203.56,176.19 -50.89,29.34 -50.89,29.34 C-50.89,29.34 -50.89,-264.5 -50.89,-264.5 C-50.89,-264.5 203.56,-117.61 203.56,-117.61z"></path><g opacity="1" transform="matrix(1,0,0,1,0,0)"></g><g opacity="1" transform="matrix(1,0,0,1,76.33499908447266,-44.15299987792969)"></g></g></g></g><linearGradient id="__lottie_element_50" spreadMethod="pad" gradientUnits="userSpaceOnUse" x1="-540" y1="0" x2="539.9829711914062" y2="400"><stop offset="0%" stop-color="rgb(255,255,255)"></stop><stop offset="50%" stop-color="rgb(255,255,255)"></stop><stop offset="100%" stop-color="rgb(255,255,255)"></stop></linearGradient><mask id="__lottie_element_52"><path fill="url(#__lottie_element_51)" d=" M540,-540 C540,-540 540,540 540,540 C540,540 -540,540 -540,540 C-540,540 -540,-540 -540,-540 C-540,-540 540,-540 540,-540z"></path></mask><linearGradient id="__lottie_element_51" spreadMethod="pad" gradientUnits="userSpaceOnUse" x1="-540" y1="0" x2="539.9829711914062" y2="400"><stop stop-color="rgb(255,255,255)" offset="0%" stop-opacity="0"></stop><stop stop-color="rgb(255,255,255)" offset="50%" stop-opacity="0.5"></stop><stop stop-color="rgb(255,255,255)" offset="75%" stop-opacity="1"></stop><stop stop-color="rgb(255,255,255)" offset="75%" stop-opacity="0.5"></stop><stop stop-color="rgb(255,255,255)" offset="75%" stop-opacity="0"></stop></linearGradient><g id="__lottie_element_53"><g transform="matrix(1,0,0,1,953.1199951171875,867.1409912109375)" opacity="1" style="display: block;"><g opacity="1" transform="matrix(1,0,0,1,0,0)"><path fill="rgb(255,0,0)" fill-opacity="1" d=" M203.56,-352.54 C203.56,-352.54 203.56,-235.35 203.56,-235.35 C203.56,-235.35 -203.56,-0.16 -203.56,-0.16 C-203.56,-0.16 -203.56,-117.57 -203.56,-117.57 C-203.56,-117.57 203.56,-352.54 203.56,-352.54z M203.56,-176.36 C203.56,-176.36 203.56,117.43 203.56,117.43 C203.56,117.43 -203.56,352.54 -203.56,352.54 C-203.56,352.54 -203.56,235.08 -203.56,235.08 C-203.56,235.08 101.78,58.69 101.78,58.69 C101.78,58.69 101.78,-0.04 101.78,-0.04 C101.78,-0.04 -203.56,176.19 -203.56,176.19 C-203.56,176.19 -203.56,58.69 -203.56,58.69 C-203.56,58.69 203.56,-176.36 203.56,-176.36z"></path><g opacity="1" transform="matrix(1,0,0,1,0,-176.3520050048828)"></g><g opacity="1" transform="matrix(1,0,0,1,0,88.09100341796875)"></g></g></g></g><linearGradient id="__lottie_element_59" spreadMethod="pad" gradientUnits="userSpaceOnUse" x1="-540" y1="0" x2="539.9829711914062" y2="400"><stop offset="0%" stop-color="rgb(255,255,255)"></stop><stop offset="50%" stop-color="rgb(255,255,255)"></stop><stop offset="100%" stop-color="rgb(255,255,255)"></stop></linearGradient><mask id="__lottie_element_61"><path fill="url(#__lottie_element_60)" d=" M540,-540 C540,-540 540,540 540,540 C540,540 -540,540 -540,540 C-540,540 -540,-540 -540,-540 C-540,-540 540,-540 540,-540z"></path></mask><linearGradient id="__lottie_element_60" spreadMethod="pad" gradientUnits="userSpaceOnUse" x1="-540" y1="0" x2="539.9829711914062" y2="400"><stop stop-color="rgb(255,255,255)" offset="0%" stop-opacity="0"></stop><stop stop-color="rgb(255,255,255)" offset="50%" stop-opacity="0.5"></stop><stop stop-color="rgb(255,255,255)" offset="75%" stop-opacity="1"></stop><stop stop-color="rgb(255,255,255)" offset="75%" stop-opacity="0.5"></stop><stop stop-color="rgb(255,255,255)" offset="75%" stop-opacity="0"></stop></linearGradient><g id="__lottie_element_62"><g transform="matrix(1,0,0,1,749.5609741210938,514.5029907226562)" opacity="1" style="display: block;"><g opacity="1" transform="matrix(1,0,0,1,0,0)"><path fill="rgb(255,0,0)" fill-opacity="1" d=" M0,58.75 C0,58.75 -152.67,146.89 -152.67,146.89 C-152.67,146.89 0,235.03 0,235.03 C0,235.03 152.67,146.89 152.67,146.89 C152.67,146.89 0,58.75 0,58.75z M0,-235.06399536132812 C0,-235.06399536132812 407.11700439453125,0.09600000083446503 407.11700439453125,0.09600000083446503 C407.11700439453125,0.09600000083446503 0,235.06399536132812 0,235.06399536132812 C0,235.06399536132812 -254.447998046875,88.20700073242188 -254.447998046875,88.20700073242188 C-254.447998046875,88.20700073242188 -254.447998046875,88.13999938964844 -254.447998046875,88.13999938964844 C-254.447998046875,88.13999938964844 0,-58.8120002746582 0,-58.8120002746582 C0,-58.8120002746582 254.447998046875,88.13999938964844 254.447998046875,88.13999938964844 C254.447998046875,88.13999938964844 305.3380126953125,58.75199890136719 305.3380126953125,58.75199890136719 C305.3380126953125,58.75199890136719 0,-117.59500122070312 0,-117.59500122070312 C0,-117.59500122070312 -305.3380126953125,58.75199890136719 -305.3380126953125,58.75199890136719 C-305.3380126953125,58.75199890136719 -305.3380126953125,58.83700180053711 -305.3380126953125,58.83700180053711 C-305.3380126953125,58.83700180053711 -407.11700439453125,0.09600000083446503 -407.11700439453125,0.09600000083446503 C-407.11700439453125,0.09600000083446503 0,-235.06399536132812 0,-235.06399536132812z"></path><g opacity="1" transform="matrix(1,0,0,1,0,146.88900756835938)"></g><g opacity="1" transform="matrix(1,0,0,1,0,0)"></g></g></g></g><mask id="__lottie_element_62_1" mask-type="alpha"><use xlink:href="#__lottie_element_62"></use></mask><mask id="__lottie_element_53_1" mask-type="alpha"><use xlink:href="#__lottie_element_53"></use></mask><mask id="__lottie_element_44_1" mask-type="alpha"><use xlink:href="#__lottie_element_44"></use></mask><linearGradient id="__lottie_element_33" spreadMethod="pad" gradientUnits="userSpaceOnUse" x1="0" y1="-352.5" x2="0" y2="352.5"><stop offset="0%" stop-color="rgb(0,0,0)" stop-opacity="0"></stop><stop offset="50%" stop-color="rgb(0,0,0)" stop-opacity="0.5"></stop><stop offset="100%" stop-color="rgb(0,0,0)" stop-opacity="1"></stop></linearGradient><linearGradient id="__lottie_element_37" spreadMethod="pad" gradientUnits="userSpaceOnUse" x1="0" y1="-235" x2="0" y2="235"><stop offset="0%" stop-color="rgb(0,0,0)" stop-opacity="0"></stop><stop offset="50%" stop-color="rgb(0,0,0)" stop-opacity="0.5"></stop><stop offset="100%" stop-color="rgb(0,0,0)" stop-opacity="1"></stop></linearGradient><linearGradient id="__lottie_element_41" spreadMethod="pad" gradientUnits="userSpaceOnUse" x1="-540" y1="0" x2="539.9829711914062" y2="400"><stop offset="0%" stop-color="rgb(240,240,240)"></stop><stop offset="50%" stop-color="rgb(240,240,240)"></stop><stop offset="100%" stop-color="rgb(240,240,240)"></stop></linearGradient><linearGradient id="__lottie_element_50" spreadMethod="pad" gradientUnits="userSpaceOnUse" x1="-540" y1="0" x2="539.9829711914062" y2="400"><stop offset="0%" stop-color="rgb(255,255,255)"></stop><stop offset="50%" stop-color="rgb(255,255,255)"></stop><stop offset="100%" stop-color="rgb(255,255,255)"></stop></linearGradient><linearGradient id="__lottie_element_59" spreadMethod="pad" gradientUnits="userSpaceOnUse" x1="-540" y1="0" x2="539.9829711914062" y2="400"><stop offset="0%" stop-color="rgb(255,255,255)"></stop><stop offset="50%" stop-color="rgb(255,255,255)"></stop><stop offset="100%" stop-color="rgb(255,255,255)"></stop></linearGradient><g id="__lottie_element_62"><g transform="matrix(1,0,0,1,749.5609741210938,514.5029907226562)" opacity="1" style="display: block;"><g opacity="1" transform="matrix(1,0,0,1,0,0)"><path fill="rgb(255,0,0)" fill-opacity="1" d=" M0,58.75 C0,58.75 -152.67,146.89 -152.67,146.89 C-152.67,146.89 0,235.03 0,235.03 C0,235.03 152.67,146.89 152.67,146.89 C152.67,146.89 0,58.75 0,58.75z M0,-235.06399536132812 C0,-235.06399536132812 407.11700439453125,0.09600000083446503 407.11700439453125,0.09600000083446503 C407.11700439453125,0.09600000083446503 0,235.06399536132812 0,235.06399536132812 C0,235.06399536132812 -254.447998046875,88.20700073242188 -254.447998046875,88.20700073242188 C-254.447998046875,88.20700073242188 -254.447998046875,88.13999938964844 -254.447998046875,88.13999938964844 C-254.447998046875,88.13999938964844 0,-58.8120002746582 0,-58.8120002746582 C0,-58.8120002746582 254.447998046875,88.13999938964844 254.447998046875,88.13999938964844 C254.447998046875,88.13999938964844 305.3380126953125,58.75199890136719 305.3380126953125,58.75199890136719 C305.3380126953125,58.75199890136719 0,-117.59500122070312 0,-117.59500122070312 C0,-117.59500122070312 -305.3380126953125,58.75199890136719 -305.3380126953125,58.75199890136719 C-305.3380126953125,58.75199890136719 -305.3380126953125,58.83700180053711 -305.3380126953125,58.83700180053711 C-305.3380126953125,58.83700180053711 -407.11700439453125,0.09600000083446503 -407.11700439453125,0.09600000083446503 C-407.11700439453125,0.09600000083446503 0,-235.06399536132812 0,-235.06399536132812z"></path><g opacity="1" transform="matrix(1,0,0,1,0,146.88900756835938)"></g><g opacity="1" transform="matrix(1,0,0,1,0,0)"></g></g></g></g><g id="__lottie_element_53"><g transform="matrix(1,0,0,1,953.1199951171875,867.1409912109375)" opacity="1" style="display: block;"><g opacity="1" transform="matrix(1,0,0,1,0,0)"><path fill="rgb(255,0,0)" fill-opacity="1" d=" M203.56,-352.54 C203.56,-352.54 203.56,-235.35 203.56,-235.35 C203.56,-235.35 -203.56,-0.16 -203.56,-0.16 C-203.56,-0.16 -203.56,-117.57 -203.56,-117.57 C-203.56,-117.57 203.56,-352.54 203.56,-352.54z M203.56,-176.36 C203.56,-176.36 203.56,117.43 203.56,117.43 C203.56,117.43 -203.56,352.54 -203.56,352.54 C-203.56,352.54 -203.56,235.08 -203.56,235.08 C-203.56,235.08 101.78,58.69 101.78,58.69 C101.78,58.69 101.78,-0.04 101.78,-0.04 C101.78,-0.04 -203.56,176.19 -203.56,176.19 C-203.56,176.19 -203.56,58.69 -203.56,58.69 C-203.56,58.69 203.56,-176.36 203.56,-176.36z"></path><g opacity="1" transform="matrix(1,0,0,1,0,-176.3520050048828)"></g><g opacity="1" transform="matrix(1,0,0,1,0,88.09100341796875)"></g></g></g></g><g id="__lottie_element_44"><g transform="matrix(1,0,0,1,546.0020141601562,867.1409912109375)" opacity="1" style="display: block;"><g opacity="1" transform="matrix(1,0,0,1,0,0)"><path fill="rgb(255,0,0)" fill-opacity="1" d=" M203.5590057373047,235.08399963378906 C203.5590057373047,235.08399963378906 203.5590057373047,352.5419921875 203.5590057373047,352.5419921875 C203.5590057373047,352.5419921875 -203.5590057373047,117.4280014038086 -203.5590057373047,117.4280014038086 C-203.5590057373047,117.4280014038086 -203.5590057373047,-352.5419921875 -203.5590057373047,-352.5419921875 C-203.5590057373047,-352.5419921875 -101.77899932861328,-293.885986328125 -101.77899932861328,-293.885986328125 C-101.77899932861328,-293.885986328125 -101.77899932861328,58.6879997253418 -101.77899932861328,58.6879997253418 C-101.77899932861328,58.6879997253418 203.5590057373047,235.08399963378906 203.5590057373047,235.08399963378906 M203.56,-117.61 C203.56,-117.61 203.56,-0.16 203.56,-0.16 C203.56,-0.16 50.89,-88.23 50.89,-88.23 C50.89,-88.23 50.89,-29.44 50.89,-29.44 C50.89,-29.44 203.56,58.69 203.56,58.69 C203.56,58.69 203.56,176.19 203.56,176.19 C203.56,176.19 -50.89,29.34 -50.89,29.34 C-50.89,29.34 -50.89,-264.5 -50.89,-264.5 C-50.89,-264.5 203.56,-117.61 203.56,-117.61z"></path><g opacity="1" transform="matrix(1,0,0,1,0,0)"></g><g opacity="1" transform="matrix(1,0,0,1,76.33499908447266,-44.15299987792969)"></g></g></g></g></defs><g clip-path="url(#__lottie_element_26)"><g transform="matrix(1,0,0,1,749.5609741210938,749.5609741210938)" opacity="1" style="display: block;"><g opacity="1" transform="matrix(1,0,0,1,0,0)"><path fill="#FFFFFF" fill-opacity="1" d=" M0,-176.31 C0,-176.31 -152.67,-88.17 -152.67,-88.17 C-152.67,-88.17 0,-0.03 0,-0.03 C0,-0.03 152.67,-88.17 152.67,-88.17 C152.67,-88.17 0,-176.31 0,-176.31z M0,-352.65 C0,-352.65 -305.34,-176.31 -305.34,-176.31 C-305.34,-176.31 -305.34,176.27 -305.34,176.27 C-305.34,176.27 0,352.66 0,352.66 C0,352.66 305.34,176.27 305.34,176.27 C305.34,176.27 305.34,117.54 305.34,117.54 C305.34,117.54 0,293.77 0,293.77 C0,293.77 -254.45,146.92 -254.45,146.92 C-254.45,146.92 -254.45,-146.92 -254.45,-146.92 C-254.45,-146.92 0,-293.87 0,-293.87 C0,-293.87 254.45,-146.92 254.45,-146.92 C254.45,-146.92 305.34,-176.31 305.34,-176.31 C305.34,-176.31 0,-352.65 0,-352.65z M0,-470.12200927734375 C0,-470.12200927734375 407.11700439453125,-234.96200561523438 407.11700439453125,-234.96200561523438 C407.11700439453125,-234.96200561523438 407.11700439453125,-117.76599884033203 407.11700439453125,-117.76599884033203 C407.11700439453125,-117.76599884033203 0,117.41699981689453 0,117.41699981689453 C0,117.41699981689453 -152.66900634765625,29.347000122070312 -152.66900634765625,29.347000122070312 C-152.66900634765625,29.347000122070312 -152.66900634765625,88.13999938964844 -152.66900634765625,88.13999938964844 C-152.66900634765625,88.13999938964844 0,176.26800537109375 0,176.26800537109375 C0,176.26800537109375 407.11700439453125,-58.78099822998047 407.11700439453125,-58.78099822998047 C407.11700439453125,-58.78099822998047 407.11700439453125,235.00799560546875 407.11700439453125,235.00799560546875 C407.11700439453125,235.00799560546875 0,470.12200927734375 0,470.12200927734375 C0,470.12200927734375 -407.11700439453125,235.00799560546875 -407.11700439453125,235.00799560546875 C-407.11700439453125,235.00799560546875 -407.11700439453125,-234.96200561523438 -407.11700439453125,-234.96200561523438 C-407.11700439453125,-234.96200561523438 0,-470.12200927734375 0,-470.12200927734375z"></path><g opacity="1" transform="matrix(1,0,0,1,0,-88.16899871826172)"></g><g opacity="1" transform="matrix(1,0,0,1,0,0.006000000052154064)"></g><g opacity="1" transform="matrix(1,0,0,1,0,0)"></g></g></g><g transform="matrix(1,0,0,1,953.1199951171875,867.1409912109375)" opacity="0.4" style="display: block;"><g opacity="1" transform="matrix(1,0,0,1,0,0)"><path fill="url(&quot;#__lottie_element_33&quot;)" fill-opacity="1" d=" M203.56,-352.54 C203.56,-352.54 203.56,-235.35 203.56,-235.35 C203.56,-235.35 -203.56,-0.16 -203.56,-0.16 C-203.56,-0.16 -203.56,-117.57 -203.56,-117.57 C-203.56,-117.57 203.56,-352.54 203.56,-352.54z M203.56,-176.36 C203.56,-176.36 203.56,117.43 203.56,117.43 C203.56,117.43 -203.56,352.54 -203.56,352.54 C-203.56,352.54 -203.56,235.08 -203.56,235.08 C-203.56,235.08 101.78,58.69 101.78,58.69 C101.78,58.69 101.78,-0.04 101.78,-0.04 C101.78,-0.04 -203.56,176.19 -203.56,176.19 C-203.56,176.19 -203.56,58.69 -203.56,58.69 C-203.56,58.69 203.56,-176.36 203.56,-176.36z"></path><g opacity="1" transform="matrix(1,0,0,1,0,-176.3520050048828)"></g><g opacity="1" transform="matrix(1,0,0,1,0,88.09100341796875)"></g></g></g><g transform="matrix(1,0,0,1,749.5609741210938,514.5029907226562)" opacity="0.4" style="display: block;"><g opacity="1" transform="matrix(1,0,0,1,0,0)"><path fill="url(&quot;#__lottie_element_37&quot;)" fill-opacity="1" d=" M0,58.75 C0,58.75 -152.67,146.89 -152.67,146.89 C-152.67,146.89 0,235.03 0,235.03 C0,235.03 152.67,146.89 152.67,146.89 C152.67,146.89 0,58.75 0,58.75z M0,-235.06399536132812 C0,-235.06399536132812 407.11700439453125,0.09600000083446503 407.11700439453125,0.09600000083446503 C407.11700439453125,0.09600000083446503 0,235.06399536132812 0,235.06399536132812 C0,235.06399536132812 -254.447998046875,88.20700073242188 -254.447998046875,88.20700073242188 C-254.447998046875,88.20700073242188 -254.447998046875,88.13999938964844 -254.447998046875,88.13999938964844 C-254.447998046875,88.13999938964844 0,-58.8120002746582 0,-58.8120002746582 C0,-58.8120002746582 254.447998046875,88.13999938964844 254.447998046875,88.13999938964844 C254.447998046875,88.13999938964844 305.3380126953125,58.75199890136719 305.3380126953125,58.75199890136719 C305.3380126953125,58.75199890136719 0,-117.59500122070312 0,-117.59500122070312 C0,-117.59500122070312 -305.3380126953125,58.75199890136719 -305.3380126953125,58.75199890136719 C-305.3380126953125,58.75199890136719 -305.3380126953125,58.83700180053711 -305.3380126953125,58.83700180053711 C-305.3380126953125,58.83700180053711 -407.11700439453125,0.09600000083446503 -407.11700439453125,0.09600000083446503 C-407.11700439453125,0.09600000083446503 0,-235.06399536132812 0,-235.06399536132812z"></path><g opacity="1" transform="matrix(1,0,0,1,0,146.88900756835938)"></g><g opacity="1" transform="matrix(1,0,0,1,0,0)"></g></g></g><g mask="url(#__lottie_element_44_1)" style="display: block;"><g transform="matrix(1,0,0,1,-140.56399536132812,750)" opacity="1"><g opacity="1" transform="matrix(1,0,0,1,0,0)"><path fill="url(&quot;#__lottie_element_41&quot;)" mask="url(#__lottie_element_43)" fill-opacity="1" d="M0 0 M540,-540 C540,-540 540,540 540,540 C540,540 -540,540 -540,540 C-540,540 -540,-540 -540,-540 C-540,-540 540,-540 540,-540z"></path></g></g></g><g mask="url(#__lottie_element_53_1)" style="display: block;"><g transform="matrix(1,0,0,1,-140.56399536132812,750)" opacity="1"><g opacity="1" transform="matrix(1,0,0,1,0,0)"><path fill="url(&quot;#__lottie_element_50&quot;)" mask="url(#__lottie_element_52)" fill-opacity="1" d="M0 0 M540,-540 C540,-540 540,540 540,540 C540,540 -540,540 -540,540 C-540,540 -540,-540 -540,-540 C-540,-540 540,-540 540,-540z"></path></g></g></g><g mask="url(#__lottie_element_62_1)" style="display: block;"><g transform="matrix(1,0,0,1,-140.56399536132812,750)" opacity="1"><g opacity="1" transform="matrix(1,0,0,1,0,0)"><path fill="url(&quot;#__lottie_element_59&quot;)" mask="url(#__lottie_element_61)" fill-opacity="1" d="M0 0 M540,-540 C540,-540 540,540 540,540 C540,540 -540,540 -540,540 C-540,540 -540,-540 -540,-540 C-540,-540 540,-540 540,-540z"></path></g></g></g></g></svg>